<?xml version="1.0" standalone="no"?>
<!DOCTYPE svg PUBLIC "-//W3C//DTD SVG 20010904//EN"
 "http://www.w3.org/TR/2001/REC-SVG-20010904/DTD/svg10.dtd">
<svg version="1.0" xmlns="http://www.w3.org/2000/svg"
 width="70.000000pt" height="80.000000pt" viewBox="0 0 70.000000 80.000000"
 preserveAspectRatio="xMidYMid meet">
<metadata>
Created by potrace 1.16, written by Peter Selinger 2001-2019
</metadata>
<g transform="translate(0.000000,80.000000) scale(0.031818,-0.022792)"
fill="#000000" stroke="none">
<path d="M0 1755 l0 -1755 1100 0 1100 0 0 1755 0 1755 -1100 0 -1100 0 0
-1755z m1295 1591 c13 -13 27 -36 31 -50 3 -14 10 -26 15 -26 5 0 34 17 65 37
53 35 57 36 82 22 15 -8 35 -31 45 -51 19 -38 44 -144 36 -152 -2 -2 -42 7
-89 22 -77 23 -101 25 -247 25 -90 0 -163 2 -163 4 0 14 44 84 74 119 33 39
86 73 114 74 7 0 24 -11 37 -24z m151 -332 c205 -30 426 -102 514 -165 33 -24
40 -35 40 -63 0 -40 -21 -61 -90 -87 -49 -19 -221 -48 -283 -49 l-28 0 7 64
c12 113 0 127 -152 178 -61 20 -87 23 -219 22 -122 0 -160 -4 -204 -20 -30
-11 -58 -26 -62 -34 -4 -8 -11 -42 -16 -75 l-8 -60 -35 3 c-86 9 -240 80 -277
128 l-26 35 20 27 c10 15 35 35 54 44 51 26 193 59 284 66 122 11 368 3 481
-14z m-28 -144 c40 -11 93 -30 117 -41 l45 -21 -1 -57 c0 -31 -8 -114 -17
-186 -14 -103 -20 -130 -32 -129 -8 1 -58 14 -110 30 -86 24 -112 27 -269 29
l-174 2 2 89 c3 185 12 264 32 275 61 32 303 38 407 9z m-485 -624 c106 -85
210 -190 291 -294 36 -45 62 -70 69 -65 108 63 199 133 276 209 l94 93 37 -29
c115 -91 290 -338 290 -409 0 -38 -8 -43 -43 -25 -16 9 -66 19 -111 22 l-81 5
-43 48 c-24 26 -65 64 -92 84 -36 27 -50 43 -50 61 0 32 -26 94 -39 94 -7 0
-8 -28 -5 -77 5 -64 1 -95 -20 -173 -13 -53 -29 -107 -35 -121 l-10 -26 -49
16 c-27 10 -64 30 -83 45 -46 39 -74 48 -150 48 -48 0 -78 -6 -108 -21 -30
-16 -55 -21 -89 -18 -26 2 -78 1 -116 -3 -53 -4 -69 -3 -74 8 -3 8 1 87 7 176
12 147 15 163 37 187 13 14 24 28 24 32 0 16 -25 4 -98 -45 -42 -29 -122 -78
-176 -110 -84 -48 -102 -55 -120 -46 -30 16 -115 13 -160 -6 -22 -9 -41 -14
-44 -11 -9 8 37 98 66 131 36 40 125 112 220 176 71 48 229 116 275 117 9 1
59 -32 110 -73z m-461 -374 c6 -6 12 -56 14 -113 7 -141 9 -146 48 -163 19 -8
40 -24 46 -37 19 -34 6 -97 -27 -131 -35 -38 -138 -88 -180 -88 -44 0 -111 28
-124 52 -13 24 -24 167 -24 312 l0 108 33 28 c18 15 48 32 65 38 36 12 135 8
149 -6z m790 -151 c47 -21 92 -63 103 -99 3 -12 1 -47 -5 -77 -10 -48 -17 -59
-52 -82 -59 -40 -139 -43 -213 -10 -48 23 -59 33 -76 73 -25 55 -20 92 17 142
51 67 144 89 226 53z m603 -12 c33 -6 73 -18 88 -26 28 -14 29 -17 23 -66 -4
-29 -16 -90 -27 -136 -20 -81 -20 -86 -4 -114 21 -35 15 -99 -11 -128 -36 -39
-146 -51 -227 -23 -54 18 -107 73 -107 110 0 40 38 104 76 126 18 11 34 24 34
29 0 17 30 214 35 227 5 15 43 15 120 1z m-865 -209 c12 -17 45 -43 73 -58 43
-22 64 -27 127 -26 70 0 133 19 150 44 3 5 21 0 40 -9 39 -18 50 -49 70 -189
11 -83 13 -349 3 -466 l-6 -77 -26 8 c-14 4 -68 8 -118 8 -104 -1 -98 -6 -83
80 7 46 -2 129 -45 382 -5 29 -3 32 22 35 15 2 28 8 28 13 0 11 -87 22 -190
24 l-70 1 0 -172 c-1 -142 -5 -190 -23 -267 -12 -52 -23 -96 -25 -98 -2 -2
-17 4 -33 12 -21 11 -55 15 -119 14 -72 -1 -89 2 -85 12 2 8 5 138 5 289 1
273 10 364 40 437 l14 33 115 0 115 0 21 -30z m644 -1180 c15 -15 -8 -34 -92
-74 -106 -49 -204 -76 -279 -76 -112 0 -124 24 -33 70 150 76 365 119 404 80z
m-657 -66 c12 -3 24 -13 27 -21 10 -24 -70 -51 -208 -68 -179 -24 -271 -7
-178 32 109 46 292 75 359 57z"/>
<path d="M1159 2847 c-23 -17 -49 -72 -49 -102 0 -34 17 -32 25 5 9 39 42 80
66 80 24 0 24 -4 -5 -35 -31 -34 -40 -70 -24 -103 9 -19 21 -27 38 -27 21 0
28 8 42 51 13 40 15 60 7 88 -14 51 -62 72 -100 43z"/>
<path d="M1399 2811 c-17 -13 -35 -17 -54 -14 -28 4 -29 3 -11 -11 10 -8 47
-25 82 -36 35 -12 74 -30 86 -41 l23 -19 -40 -34 c-22 -19 -66 -50 -98 -68
-84 -48 -91 -54 -83 -67 11 -18 143 55 199 111 50 50 56 68 32 88 -8 7 -15 24
-15 39 0 65 -68 94 -121 52z"/>
<path d="M1114 1643 c-3 -21 -10 -56 -14 -77 -5 -22 -6 -44 -4 -48 9 -15 24 3
24 28 0 31 22 40 68 26 30 -9 40 -20 55 -54 13 -31 20 -39 29 -30 8 8 7 17 -6
36 -22 34 -21 38 14 58 18 10 30 25 30 38 0 29 -70 59 -137 60 l-52 0 -7 -37z"/>
</g>
</svg>
